<mxfile host="app.diagrams.net" agent="Mozilla/5.0 (Windows NT 10.0; Win64; x64) AppleWebKit/537.36 (KHTML, like Gecko) Chrome/137.0.0.0 Safari/537.36 Edg/137.0.0.0" version="27.1.6">
  <diagram name="Page-1" id="yAkueWH8tclE_65RSBvn">
    <mxGraphModel dx="2633" dy="1028" grid="1" gridSize="10" guides="1" tooltips="1" connect="1" arrows="1" fold="1" page="1" pageScale="1" pageWidth="1100" pageHeight="850" math="0" shadow="0">
      <root>
        <mxCell id="0" />
        <mxCell id="1" parent="0" />
        <mxCell id="nuoCHBoQebbKfIUDkXKh-1" value="" style="rounded=0;whiteSpace=wrap;html=1;rotation=-180;sketch=1;curveFitting=1;jiggle=2;fillColor=#a20025;fontColor=#ffffff;strokeColor=#6F0000;" parent="1" vertex="1">
          <mxGeometry x="160" y="460" width="600" height="80" as="geometry" />
        </mxCell>
        <mxCell id="nuoCHBoQebbKfIUDkXKh-2" value="" style="rounded=0;whiteSpace=wrap;html=1;rotation=-180;sketch=1;curveFitting=1;jiggle=2;fillColor=#a20025;fontColor=#ffffff;strokeColor=#6F0000;" parent="1" vertex="1">
          <mxGeometry x="220" y="50" width="600" height="70" as="geometry" />
        </mxCell>
        <mxCell id="sH69yQ1ZhXcAEsHfrU8D-3" value="" style="rounded=0;whiteSpace=wrap;html=1;sketch=1;curveFitting=1;jiggle=2;" parent="1" vertex="1">
          <mxGeometry x="530" y="640" width="290" height="160" as="geometry" />
        </mxCell>
        <mxCell id="uHRIR_JINjC9fajswvWd-8" style="edgeStyle=orthogonalEdgeStyle;rounded=0;orthogonalLoop=1;jettySize=auto;html=1;entryX=0;entryY=0.68;entryDx=0;entryDy=0;entryPerimeter=0;" parent="1" source="uHRIR_JINjC9fajswvWd-7" target="sH69yQ1ZhXcAEsHfrU8D-24" edge="1">
          <mxGeometry relative="1" as="geometry">
            <mxPoint x="510" y="770" as="targetPoint" />
            <Array as="points">
              <mxPoint x="511" y="580" />
              <mxPoint x="511" y="774" />
            </Array>
          </mxGeometry>
        </mxCell>
        <mxCell id="uHRIR_JINjC9fajswvWd-7" value="" style="rounded=1;whiteSpace=wrap;html=1;sketch=1;curveFitting=1;jiggle=2;" parent="1" vertex="1">
          <mxGeometry x="560" y="560" width="120" height="60" as="geometry" />
        </mxCell>
        <mxCell id="uHRIR_JINjC9fajswvWd-5" value="" style="rounded=1;whiteSpace=wrap;html=1;sketch=1;curveFitting=1;jiggle=2;" parent="1" vertex="1">
          <mxGeometry x="10" y="560" width="490" height="260" as="geometry" />
        </mxCell>
        <mxCell id="sH69yQ1ZhXcAEsHfrU8D-1" value="" style="rounded=0;whiteSpace=wrap;html=1;sketch=1;curveFitting=1;jiggle=2;" parent="1" vertex="1">
          <mxGeometry x="120" y="120" width="640" height="340" as="geometry" />
        </mxCell>
        <mxCell id="sH69yQ1ZhXcAEsHfrU8D-4" value="" style="shape=document;whiteSpace=wrap;html=1;boundedLbl=1;rotation=-180;" parent="1" vertex="1">
          <mxGeometry x="480" y="420" width="80" height="40" as="geometry" />
        </mxCell>
        <mxCell id="sH69yQ1ZhXcAEsHfrU8D-6" value="" style="shape=process;whiteSpace=wrap;html=1;backgroundOutline=1;" parent="1" vertex="1">
          <mxGeometry x="550" y="270" width="120" height="40" as="geometry" />
        </mxCell>
        <mxCell id="sH69yQ1ZhXcAEsHfrU8D-7" value="&lt;div style=&quot;line-height: 10%;&quot;&gt;&lt;pre&gt;&lt;font style=&quot;line-height: 10%; font-size: 8px;&quot;&gt;Main Drain&lt;/font&gt;&lt;/pre&gt;&lt;pre&gt;&lt;font style=&quot;line-height: 10%; font-size: 8px;&quot;&gt;&lt;pre style=&quot;&quot;&gt;(1&quot; 1/4 SCH 40 PVC)&lt;/pre&gt;&lt;/font&gt;&lt;/pre&gt;&lt;/div&gt;" style="text;html=1;align=center;verticalAlign=middle;whiteSpace=wrap;rounded=0;fontSize=6;" parent="1" vertex="1">
          <mxGeometry x="575" y="277.5" width="70" height="25" as="geometry" />
        </mxCell>
        <mxCell id="sH69yQ1ZhXcAEsHfrU8D-9" value="&lt;pre&gt;Chlorine Feeder&lt;br&gt;(Erosion Type)&lt;/pre&gt;" style="text;html=1;align=center;verticalAlign=middle;whiteSpace=wrap;rounded=0;fontSize=9;" parent="1" vertex="1">
          <mxGeometry x="570" y="577.5" width="100" height="25" as="geometry" />
        </mxCell>
        <mxCell id="sH69yQ1ZhXcAEsHfrU8D-10" value="" style="endArrow=none;html=1;rounded=0;exitX=0.5;exitY=0;exitDx=0;exitDy=0;" parent="1" source="sH69yQ1ZhXcAEsHfrU8D-4" edge="1">
          <mxGeometry width="50" height="50" relative="1" as="geometry">
            <mxPoint x="250" y="100" as="sourcePoint" />
            <mxPoint x="780" y="640" as="targetPoint" />
            <Array as="points">
              <mxPoint x="520" y="480" />
              <mxPoint x="780" y="480" />
            </Array>
          </mxGeometry>
        </mxCell>
        <mxCell id="uHRIR_JINjC9fajswvWd-1" value="&lt;div&gt;&lt;font&gt;SKIMMER (1&quot; 1/4 SCH 40 PVC)&lt;/font&gt;&lt;/div&gt;" style="edgeLabel;html=1;align=center;verticalAlign=middle;resizable=0;points=[];fontSize=12;fontFamily=Lucida Console;" parent="sH69yQ1ZhXcAEsHfrU8D-10" vertex="1" connectable="0">
          <mxGeometry x="-0.2562" y="2" relative="1" as="geometry">
            <mxPoint x="-24" as="offset" />
          </mxGeometry>
        </mxCell>
        <mxCell id="sH69yQ1ZhXcAEsHfrU8D-13" value="" style="endArrow=none;html=1;rounded=0;exitX=1;exitY=0.5;exitDx=0;exitDy=0;entryX=0.897;entryY=0;entryDx=0;entryDy=0;entryPerimeter=0;" parent="1" source="sH69yQ1ZhXcAEsHfrU8D-6" target="sH69yQ1ZhXcAEsHfrU8D-3" edge="1">
          <mxGeometry width="50" height="50" relative="1" as="geometry">
            <mxPoint x="600" y="320" as="sourcePoint" />
            <mxPoint x="840" y="290" as="targetPoint" />
            <Array as="points">
              <mxPoint x="790" y="290" />
            </Array>
          </mxGeometry>
        </mxCell>
        <mxCell id="sH69yQ1ZhXcAEsHfrU8D-14" value="" style="endArrow=none;dashed=1;html=1;dashPattern=1 3;strokeWidth=2;rounded=0;exitX=0.931;exitY=0;exitDx=0;exitDy=0;exitPerimeter=0;entryX=0.094;entryY=1.006;entryDx=0;entryDy=0;entryPerimeter=0;" parent="1" source="sH69yQ1ZhXcAEsHfrU8D-3" target="sH69yQ1ZhXcAEsHfrU8D-1" edge="1">
          <mxGeometry width="50" height="50" relative="1" as="geometry">
            <mxPoint x="840" y="510" as="sourcePoint" />
            <mxPoint x="280" y="460" as="targetPoint" />
            <Array as="points">
              <mxPoint x="800" y="510" />
              <mxPoint x="180" y="510" />
            </Array>
          </mxGeometry>
        </mxCell>
        <mxCell id="sH69yQ1ZhXcAEsHfrU8D-15" value="&lt;pre&gt;RETURN&amp;nbsp;#1 (1&quot; 1/4 SCH 40 PVC)&lt;/pre&gt;" style="edgeLabel;html=1;align=center;verticalAlign=middle;resizable=0;points=[];" parent="sH69yQ1ZhXcAEsHfrU8D-14" vertex="1" connectable="0">
          <mxGeometry x="0.0579" y="2" relative="1" as="geometry">
            <mxPoint as="offset" />
          </mxGeometry>
        </mxCell>
        <mxCell id="sH69yQ1ZhXcAEsHfrU8D-16" value="" style="endArrow=none;dashed=1;html=1;dashPattern=1 3;strokeWidth=2;rounded=0;exitX=0.25;exitY=0;exitDx=0;exitDy=0;" parent="1" source="sH69yQ1ZhXcAEsHfrU8D-1" edge="1">
          <mxGeometry width="50" height="50" relative="1" as="geometry">
            <mxPoint x="640" y="117" as="sourcePoint" />
            <mxPoint x="800" y="510" as="targetPoint" />
            <Array as="points">
              <mxPoint x="280" y="80" />
              <mxPoint x="800" y="80" />
            </Array>
          </mxGeometry>
        </mxCell>
        <mxCell id="sH69yQ1ZhXcAEsHfrU8D-17" value="&lt;pre&gt;RETURN #2 (1&quot; 1/4 SCH 40 PVC)&lt;/pre&gt;" style="edgeLabel;html=1;align=center;verticalAlign=middle;resizable=0;points=[];" parent="sH69yQ1ZhXcAEsHfrU8D-16" vertex="1" connectable="0">
          <mxGeometry x="-0.6595" y="-2" relative="1" as="geometry">
            <mxPoint as="offset" />
          </mxGeometry>
        </mxCell>
        <mxCell id="sH69yQ1ZhXcAEsHfrU8D-18" value="" style="ellipse;whiteSpace=wrap;html=1;aspect=fixed;" parent="1" vertex="1">
          <mxGeometry x="540" y="660" width="40" height="40" as="geometry" />
        </mxCell>
        <mxCell id="sH69yQ1ZhXcAEsHfrU8D-19" value="&lt;pre&gt;Pump&lt;/pre&gt;" style="shape=process;whiteSpace=wrap;html=1;backgroundOutline=1;sketch=1;curveFitting=1;jiggle=2;" parent="1" vertex="1">
          <mxGeometry x="560" y="660" width="80" height="40" as="geometry" />
        </mxCell>
        <mxCell id="sH69yQ1ZhXcAEsHfrU8D-20" value="&lt;pre&gt;Sand Filter&lt;/pre&gt;" style="ellipse;whiteSpace=wrap;html=1;aspect=fixed;" parent="1" vertex="1">
          <mxGeometry x="700" y="660" width="80" height="80" as="geometry" />
        </mxCell>
        <mxCell id="sH69yQ1ZhXcAEsHfrU8D-21" value="" style="endArrow=none;dashed=1;html=1;dashPattern=1 3;strokeWidth=2;rounded=0;entryX=0.932;entryY=0.001;entryDx=0;entryDy=0;entryPerimeter=0;exitX=0.25;exitY=1;exitDx=0;exitDy=0;" parent="1" source="sH69yQ1ZhXcAEsHfrU8D-19" target="sH69yQ1ZhXcAEsHfrU8D-3" edge="1">
          <mxGeometry width="50" height="50" relative="1" as="geometry">
            <mxPoint x="680" y="740" as="sourcePoint" />
            <mxPoint x="730" y="690" as="targetPoint" />
            <Array as="points">
              <mxPoint x="580" y="730" />
              <mxPoint x="700" y="730" />
              <mxPoint x="700" y="750" />
              <mxPoint x="800" y="750" />
            </Array>
          </mxGeometry>
        </mxCell>
        <mxCell id="sH69yQ1ZhXcAEsHfrU8D-22" value="" style="endArrow=none;html=1;rounded=0;exitX=0.5;exitY=0;exitDx=0;exitDy=0;" parent="1" source="sH69yQ1ZhXcAEsHfrU8D-20" edge="1">
          <mxGeometry width="50" height="50" relative="1" as="geometry">
            <mxPoint x="715" y="670" as="sourcePoint" />
            <mxPoint x="780" y="640" as="targetPoint" />
            <Array as="points">
              <mxPoint x="780" y="660" />
            </Array>
          </mxGeometry>
        </mxCell>
        <mxCell id="sH69yQ1ZhXcAEsHfrU8D-23" value="" style="endArrow=none;html=1;rounded=0;exitX=0.25;exitY=0;exitDx=0;exitDy=0;entryX=0;entryY=0.5;entryDx=0;entryDy=0;" parent="1" source="sH69yQ1ZhXcAEsHfrU8D-19" target="sH69yQ1ZhXcAEsHfrU8D-20" edge="1">
          <mxGeometry width="50" height="50" relative="1" as="geometry">
            <mxPoint x="590" y="725" as="sourcePoint" />
            <mxPoint x="640" y="675" as="targetPoint" />
            <Array as="points">
              <mxPoint x="580" y="650" />
              <mxPoint x="660" y="650" />
              <mxPoint x="660" y="700" />
            </Array>
          </mxGeometry>
        </mxCell>
        <mxCell id="sH69yQ1ZhXcAEsHfrU8D-24" value="&lt;pre&gt;Chl.&lt;/pre&gt;" style="ellipse;whiteSpace=wrap;html=1;aspect=fixed;" parent="1" vertex="1">
          <mxGeometry x="630" y="740" width="50" height="50" as="geometry" />
        </mxCell>
        <mxCell id="sH69yQ1ZhXcAEsHfrU8D-27" value="" style="endArrow=none;dashed=1;html=1;dashPattern=1 3;strokeWidth=2;rounded=0;exitX=0;exitY=0.5;exitDx=0;exitDy=0;entryX=0;entryY=1;entryDx=0;entryDy=0;" parent="1" source="sH69yQ1ZhXcAEsHfrU8D-24" edge="1" target="vKAQ_r-t-Htgs6Gfas-m-1">
          <mxGeometry width="50" height="50" relative="1" as="geometry">
            <mxPoint x="560" y="790" as="sourcePoint" />
            <mxPoint x="600" y="730" as="targetPoint" />
            <Array as="points">
              <mxPoint x="590" y="765" />
            </Array>
          </mxGeometry>
        </mxCell>
        <mxCell id="sH69yQ1ZhXcAEsHfrU8D-28" value="" style="endArrow=none;dashed=1;html=1;dashPattern=1 3;strokeWidth=2;rounded=0;exitX=1;exitY=0.5;exitDx=0;exitDy=0;" parent="1" source="sH69yQ1ZhXcAEsHfrU8D-24" edge="1">
          <mxGeometry width="50" height="50" relative="1" as="geometry">
            <mxPoint x="760" y="790" as="sourcePoint" />
            <mxPoint x="800" y="750" as="targetPoint" />
            <Array as="points">
              <mxPoint x="800" y="765" />
            </Array>
          </mxGeometry>
        </mxCell>
        <mxCell id="mBHjW366EDlgSjZvG0Kb-1" value="&lt;font face=&quot;Lucida Console&quot;&gt;Plumbing Overview 1&lt;/font&gt;&lt;div&gt;&lt;br&gt;&lt;/div&gt;" style="text;html=1;align=center;verticalAlign=middle;whiteSpace=wrap;rounded=0;fontStyle=5;fontSize=17;" parent="1" vertex="1">
          <mxGeometry x="85" y="570" width="330" height="70" as="geometry" />
        </mxCell>
        <mxCell id="uHRIR_JINjC9fajswvWd-6" value="&lt;pre&gt;MAIN SLAB&lt;/pre&gt;" style="text;html=1;align=center;verticalAlign=middle;whiteSpace=wrap;rounded=0;" parent="1" vertex="1">
          <mxGeometry x="395" y="265" width="90" height="45" as="geometry" />
        </mxCell>
        <mxCell id="uHRIR_JINjC9fajswvWd-10" value="" style="endArrow=none;html=1;rounded=0;" parent="1" edge="1">
          <mxGeometry width="50" height="50" relative="1" as="geometry">
            <mxPoint x="85" y="620" as="sourcePoint" />
            <mxPoint x="155" y="620" as="targetPoint" />
          </mxGeometry>
        </mxCell>
        <mxCell id="uHRIR_JINjC9fajswvWd-11" value="&lt;pre&gt;&lt;font style=&quot;font-size: 10px;&quot;&gt;Solid Line denotes &lt;b&gt;&lt;u&gt;Suction&lt;/u&gt;&lt;/b&gt; Side of the system&lt;/font&gt;&lt;/pre&gt;" style="text;strokeColor=none;fillColor=none;align=left;verticalAlign=middle;spacingLeft=4;spacingRight=4;overflow=hidden;points=[[0,0.5],[1,0.5]];portConstraint=eastwest;rotatable=0;whiteSpace=wrap;html=1;" parent="1" vertex="1">
          <mxGeometry x="160" y="600" width="280" height="30" as="geometry" />
        </mxCell>
        <mxCell id="uHRIR_JINjC9fajswvWd-12" value="" style="endArrow=none;dashed=1;html=1;rounded=0;" parent="1" edge="1">
          <mxGeometry width="50" height="50" relative="1" as="geometry">
            <mxPoint x="85" y="650" as="sourcePoint" />
            <mxPoint x="155" y="650" as="targetPoint" />
          </mxGeometry>
        </mxCell>
        <mxCell id="uHRIR_JINjC9fajswvWd-13" value="&lt;pre&gt;&lt;font style=&quot;font-size: 10px;&quot;&gt;Dotted Line denotes &lt;b&gt;&lt;u&gt;Pressure&lt;/u&gt;&lt;/b&gt; Side of the system&lt;/font&gt;&lt;/pre&gt;" style="text;strokeColor=none;fillColor=none;align=left;verticalAlign=middle;spacingLeft=4;spacingRight=4;overflow=hidden;points=[[0,0.5],[1,0.5]];portConstraint=eastwest;rotatable=0;whiteSpace=wrap;html=1;" parent="1" vertex="1">
          <mxGeometry x="160" y="630" width="280" height="30" as="geometry" />
        </mxCell>
        <mxCell id="uHRIR_JINjC9fajswvWd-14" value="&lt;pre&gt;&lt;b style=&quot;&quot;&gt;&lt;u style=&quot;&quot;&gt;&lt;font face=&quot;Lucida Console&quot; style=&quot;font-size: 17px;&quot;&gt;** NOT TO SCALE **&lt;/font&gt;&lt;/u&gt;&lt;/b&gt;&lt;/pre&gt;" style="text;strokeColor=none;fillColor=none;align=center;verticalAlign=middle;spacingLeft=4;spacingRight=4;overflow=hidden;points=[[0,0.5],[1,0.5]];portConstraint=eastwest;rotatable=0;whiteSpace=wrap;html=1;" parent="1" vertex="1">
          <mxGeometry x="110" y="780" width="280" height="40" as="geometry" />
        </mxCell>
        <mxCell id="uHRIR_JINjC9fajswvWd-15" value="" style="endArrow=none;html=1;rounded=0;" parent="1" edge="1">
          <mxGeometry width="50" height="50" relative="1" as="geometry">
            <mxPoint x="750" y="660" as="sourcePoint" />
            <mxPoint x="790" y="600" as="targetPoint" />
            <Array as="points">
              <mxPoint x="790" y="660" />
            </Array>
          </mxGeometry>
        </mxCell>
        <mxCell id="vKAQ_r-t-Htgs6Gfas-m-1" value="&lt;pre&gt;SECONDARY SLAB&lt;/pre&gt;" style="text;html=1;align=center;verticalAlign=middle;whiteSpace=wrap;rounded=0;strokeColor=none;" parent="1" vertex="1">
          <mxGeometry x="590" y="705" width="110" height="20" as="geometry" />
        </mxCell>
        <mxCell id="vKAQ_r-t-Htgs6Gfas-m-2" value="&lt;u&gt;&lt;font face=&quot;Lucida Console&quot; style=&quot;font-size: 18px;&quot;&gt;CMU POOL&lt;/font&gt;&lt;/u&gt;&lt;div style=&quot;text-align: left;&quot;&gt;&lt;span style=&quot;font-size: 10px;&quot;&gt;&lt;font face=&quot;Lucida Console&quot;&gt;Cruz Wootten&lt;/font&gt;&lt;/span&gt;&lt;/div&gt;&lt;div style=&quot;text-align: left;&quot;&gt;&lt;font face=&quot;Lucida Console&quot;&gt;&lt;span style=&quot;font-size: 10px; background-color: transparent; color: light-dark(rgb(0, 0, 0), rgb(255, 255, 255));&quot;&gt;17575 Parrot Drive&amp;nbsp;&lt;/span&gt;&lt;br&gt;&lt;span style=&quot;font-size: 10px; background-color: transparent; color: light-dark(rgb(0, 0, 0), rgb(255, 255, 255));&quot;&gt;Reno, Nevada&lt;/span&gt;&lt;/font&gt;&lt;/div&gt;&lt;div style=&quot;text-align: left;&quot;&gt;&lt;span style=&quot;background-color: transparent; color: light-dark(rgb(0, 0, 0), rgb(255, 255, 255)); font-size: 10px;&quot;&gt;&lt;font face=&quot;Lucida Console&quot;&gt;775.501.4398&lt;/font&gt;&lt;/span&gt;&lt;/div&gt;" style="swimlane;whiteSpace=wrap;html=1;startSize=100;align=center;" parent="1" vertex="1">
          <mxGeometry x="890" y="640" width="200" height="200" as="geometry" />
        </mxCell>
        <mxCell id="vKAQ_r-t-Htgs6Gfas-m-3" value="&lt;font style=&quot;font-size: 40px;&quot;&gt;&amp;nbsp;&amp;nbsp;&lt;/font&gt;&lt;font style=&quot;font-size: 24px;&quot;&gt;P1.01&lt;/font&gt;" style="text;html=1;align=left;verticalAlign=middle;whiteSpace=wrap;rounded=0;" parent="vKAQ_r-t-Htgs6Gfas-m-2" vertex="1">
          <mxGeometry y="100" width="200" height="100" as="geometry" />
        </mxCell>
        <mxCell id="vKAQ_r-t-Htgs6Gfas-m-4" value="PLUMB" style="text;html=1;align=center;verticalAlign=middle;whiteSpace=wrap;rounded=0;" parent="vKAQ_r-t-Htgs6Gfas-m-2" vertex="1">
          <mxGeometry x="20" y="110" width="70" height="30" as="geometry" />
        </mxCell>
        <mxCell id="vKAQ_r-t-Htgs6Gfas-m-5" value="" style="endArrow=none;html=1;rounded=0;exitX=0.5;exitY=1;exitDx=0;exitDy=0;" parent="vKAQ_r-t-Htgs6Gfas-m-2" source="vKAQ_r-t-Htgs6Gfas-m-3" edge="1">
          <mxGeometry width="50" height="50" relative="1" as="geometry">
            <mxPoint x="50" y="150" as="sourcePoint" />
            <mxPoint x="100" y="100" as="targetPoint" />
          </mxGeometry>
        </mxCell>
        <mxCell id="vKAQ_r-t-Htgs6Gfas-m-6" value="&lt;div&gt;&lt;font style=&quot;font-size: 13px;&quot;&gt;Drawing&lt;/font&gt;&lt;/div&gt;&lt;div&gt;&lt;font style=&quot;font-size: 13px;&quot;&gt;Page&lt;/font&gt;&lt;/div&gt;&lt;div&gt;&lt;span style=&quot;font-size: 24px; background-color: transparent; color: light-dark(rgb(0, 0, 0), rgb(255, 255, 255));&quot;&gt;8 / X&lt;/span&gt;&lt;/div&gt;" style="text;html=1;align=center;verticalAlign=middle;whiteSpace=wrap;rounded=0;fillColor=default;" parent="1" vertex="1">
          <mxGeometry x="990" y="740" width="100" height="100" as="geometry" />
        </mxCell>
        <mxCell id="vKAQ_r-t-Htgs6Gfas-m-7" value="&lt;div style=&quot;line-height: 50%;&quot;&gt;&lt;pre&gt;&lt;span style=&quot;font-size: 10px; line-height: 50%;&quot;&gt;* System to be piped in SCH 40 PVC 1&quot; 1/4 in compliance with&lt;/span&gt;&lt;/pre&gt;&lt;pre&gt;&lt;span style=&quot;font-size: 10px; line-height: 50%;&quot;&gt;  local code requirements.&lt;/span&gt;&lt;/pre&gt;&lt;/div&gt;" style="text;strokeColor=none;fillColor=none;align=left;verticalAlign=middle;spacingLeft=4;spacingRight=4;overflow=hidden;points=[[0,0.5],[1,0.5]];portConstraint=eastwest;rotatable=0;whiteSpace=wrap;html=1;" parent="1" vertex="1">
          <mxGeometry x="80" y="640" width="350" height="75" as="geometry" />
        </mxCell>
        <mxCell id="vKAQ_r-t-Htgs6Gfas-m-8" value="" style="rounded=0;whiteSpace=wrap;html=1;rotation=90;sketch=1;curveFitting=1;jiggle=2;fillColor=#60a917;fontColor=#ffffff;strokeColor=#2D7600;" parent="1" vertex="1">
          <mxGeometry x="530" y="350" width="520" height="60" as="geometry" />
        </mxCell>
        <mxCell id="vKAQ_r-t-Htgs6Gfas-m-9" value="&lt;span style=&quot;background-color: light-dark(#ffffff, var(--ge-dark-color, #121212));&quot;&gt;&lt;font style=&quot;color: light-dark(rgb(0, 0, 0), rgb(38, 140, 59));&quot;&gt;MAIN TRENCH**&lt;/font&gt;&lt;/span&gt;" style="rounded=0;whiteSpace=wrap;html=1;sketch=1;curveFitting=1;jiggle=2;strokeColor=#2D7600;align=center;verticalAlign=middle;fillColor=#60a917;fontFamily=Helvetica;fontSize=12;fontColor=#ffffff;" parent="1" vertex="1">
          <mxGeometry x="860" y="200" width="120" height="70" as="geometry" />
        </mxCell>
        <mxCell id="vKAQ_r-t-Htgs6Gfas-m-10" style="edgeStyle=orthogonalEdgeStyle;rounded=0;orthogonalLoop=1;jettySize=auto;html=1;entryX=0.287;entryY=-0.05;entryDx=0;entryDy=0;entryPerimeter=0;" parent="1" source="vKAQ_r-t-Htgs6Gfas-m-9" target="vKAQ_r-t-Htgs6Gfas-m-8" edge="1">
          <mxGeometry relative="1" as="geometry" />
        </mxCell>
        <mxCell id="vKAQ_r-t-Htgs6Gfas-m-11" value="&lt;div style=&quot;line-height: 50%;&quot;&gt;&lt;pre&gt;&lt;span style=&quot;font-size: 10px; line-height: 50%;&quot;&gt;** Trenches are to be below frostline, with a base of permeable&lt;/span&gt;&lt;/pre&gt;&lt;pre&gt;&lt;span style=&quot;font-size: 10px; line-height: 50%;&quot;&gt; fill then topped with sand.&lt;br&gt;&lt;/span&gt;&lt;/pre&gt;&lt;/div&gt;" style="text;strokeColor=none;fillColor=none;align=left;verticalAlign=middle;spacingLeft=4;spacingRight=4;overflow=hidden;points=[[0,0.5],[1,0.5]];portConstraint=eastwest;rotatable=0;whiteSpace=wrap;html=1;" parent="1" vertex="1">
          <mxGeometry x="80" y="682.5" width="350" height="75" as="geometry" />
        </mxCell>
        <mxCell id="vKAQ_r-t-Htgs6Gfas-m-12" value="" style="rounded=0;whiteSpace=wrap;html=1;fillColor=#d80073;fontColor=#ffffff;strokeColor=#A50040;fillStyle=cross-hatch;" parent="1" vertex="1">
          <mxGeometry x="670" y="280" width="90" height="20" as="geometry" />
        </mxCell>
        <mxCell id="vKAQ_r-t-Htgs6Gfas-m-14" style="edgeStyle=orthogonalEdgeStyle;rounded=0;orthogonalLoop=1;jettySize=auto;html=1;entryX=0.5;entryY=1;entryDx=0;entryDy=0;" parent="1" source="vKAQ_r-t-Htgs6Gfas-m-13" target="vKAQ_r-t-Htgs6Gfas-m-12" edge="1">
          <mxGeometry relative="1" as="geometry" />
        </mxCell>
        <mxCell id="vKAQ_r-t-Htgs6Gfas-m-13" value="MAIN DRAIN &#xa;SLEEVE ***" style="rounded=0;whiteSpace=wrap;html=1;sketch=1;curveFitting=1;jiggle=2;strokeColor=default;align=center;verticalAlign=middle;fillColor=none;" parent="1" vertex="1">
          <mxGeometry x="840" y="300" width="120" height="70" as="geometry" />
        </mxCell>
        <mxCell id="vKAQ_r-t-Htgs6Gfas-m-15" value="&lt;div style=&quot;line-height: 50%;&quot;&gt;&lt;pre&gt;&lt;span style=&quot;font-size: 10px; line-height: 50%;&quot;&gt;*** Portion of Main Drain line under slab to be sleeved inside&lt;/span&gt;&lt;/pre&gt;&lt;pre&gt;&lt;span style=&quot;font-size: 10px; line-height: 50%;&quot;&gt;of 4&quot; Perforated PVC for hydrostatic relief and water table changes&lt;/span&gt;&lt;/pre&gt;&lt;/div&gt;" style="text;strokeColor=none;fillColor=none;align=left;verticalAlign=middle;spacingLeft=4;spacingRight=4;overflow=hidden;points=[[0,0.5],[1,0.5]];portConstraint=eastwest;rotatable=0;whiteSpace=wrap;html=1;" parent="1" vertex="1">
          <mxGeometry x="80" y="725" width="400" height="75" as="geometry" />
        </mxCell>
        <mxCell id="nuoCHBoQebbKfIUDkXKh-6" style="edgeStyle=orthogonalEdgeStyle;rounded=0;orthogonalLoop=1;jettySize=auto;html=1;entryX=0;entryY=0.5;entryDx=0;entryDy=0;" parent="1" source="nuoCHBoQebbKfIUDkXKh-3" target="nuoCHBoQebbKfIUDkXKh-2" edge="1">
          <mxGeometry relative="1" as="geometry">
            <Array as="points">
              <mxPoint x="1020" y="85" />
            </Array>
          </mxGeometry>
        </mxCell>
        <mxCell id="nuoCHBoQebbKfIUDkXKh-3" value="&lt;span style=&quot;background-color: light-dark(#ffffff, var(--ge-dark-color, #121212));&quot;&gt;&lt;font style=&quot;color: light-dark(rgb(0, 0, 0), rgb(255, 1, 202));&quot;&gt;RETURN TRENCH&lt;/font&gt;&lt;/span&gt;" style="rounded=0;whiteSpace=wrap;html=1;sketch=1;curveFitting=1;jiggle=2;strokeColor=#6F0000;align=center;verticalAlign=middle;fillColor=#a20025;fontFamily=Helvetica;fontSize=12;fontColor=#ffffff;" parent="1" vertex="1">
          <mxGeometry x="950" y="450" width="120" height="45" as="geometry" />
        </mxCell>
        <mxCell id="nuoCHBoQebbKfIUDkXKh-4" style="edgeStyle=orthogonalEdgeStyle;rounded=0;orthogonalLoop=1;jettySize=auto;html=1;exitX=0.5;exitY=1;exitDx=0;exitDy=0;" parent="1" source="nuoCHBoQebbKfIUDkXKh-3" target="nuoCHBoQebbKfIUDkXKh-3" edge="1">
          <mxGeometry relative="1" as="geometry" />
        </mxCell>
        <mxCell id="nuoCHBoQebbKfIUDkXKh-5" style="edgeStyle=orthogonalEdgeStyle;rounded=0;orthogonalLoop=1;jettySize=auto;html=1;entryX=0.049;entryY=0.007;entryDx=0;entryDy=0;entryPerimeter=0;" parent="1" source="nuoCHBoQebbKfIUDkXKh-3" target="nuoCHBoQebbKfIUDkXKh-1" edge="1">
          <mxGeometry relative="1" as="geometry" />
        </mxCell>
        <mxCell id="XXQyQMuOhZwSfM4wRpbt-1" value="" style="shape=cylinder3;whiteSpace=wrap;html=1;boundedLbl=1;backgroundOutline=1;size=15;" parent="1" vertex="1">
          <mxGeometry x="170" y="420" width="30" height="40" as="geometry" />
        </mxCell>
        <mxCell id="XXQyQMuOhZwSfM4wRpbt-2" value="" style="shape=cylinder3;whiteSpace=wrap;html=1;boundedLbl=1;backgroundOutline=1;size=15;rotation=-181;" parent="1" vertex="1">
          <mxGeometry x="265" y="120" width="30" height="40" as="geometry" />
        </mxCell>
        <mxCell id="EJqP4LBOYhbU62YGiwkV-1" value="&#39;12" style="shape=dimension;direction=south;whiteSpace=wrap;html=1;align=center;points=[];verticalAlign=top;labelBackgroundColor=none;horizontal=0;spacingTop=-15;" vertex="1" parent="1">
          <mxGeometry x="20" y="117.5" width="40" height="340" as="geometry" />
        </mxCell>
        <mxCell id="EJqP4LBOYhbU62YGiwkV-2" value="&#39;16" style="shape=dimension;direction=west;whiteSpace=wrap;html=1;align=center;points=[];verticalAlign=top;spacingTop=-15;labelBackgroundColor=none;" vertex="1" parent="1">
          <mxGeometry x="120" y="20" width="640" height="40" as="geometry" />
        </mxCell>
        <mxCell id="EJqP4LBOYhbU62YGiwkV-3" value="36&quot; O.C." style="shape=dimension;direction=west;whiteSpace=wrap;html=1;align=center;points=[];verticalAlign=top;spacingTop=-15;labelBackgroundColor=none;" vertex="1" parent="1">
          <mxGeometry x="625" y="230" width="135" height="40" as="geometry" />
        </mxCell>
      </root>
    </mxGraphModel>
  </diagram>
</mxfile>
